<?xml version="1.0" standalone="no"?>
<!DOCTYPE svg PUBLIC "-//W3C//DTD SVG 20010904//EN"
 "http://www.w3.org/TR/2001/REC-SVG-20010904/DTD/svg10.dtd">
<svg version="1.0" xmlns="http://www.w3.org/2000/svg"
 width="500.000000pt" height="500.000000pt" viewBox="0 0 500.000000 500.000000"
 preserveAspectRatio="xMidYMid meet">
<metadata>
Created by potrace 1.11, written by Peter Selinger 2001-2013
</metadata>
<g transform="translate(0.000000,500.000000) scale(0.100000,-0.100000)"
fill="#000000" stroke="none">
<path d="M2215 4985 c-164 -22 -341 -61 -490 -110 -77 -26 -144 -51 -149 -56
-6 -5 -16 -9 -23 -9 -36 0 -357 -174 -473 -256 -532 -378 -892 -926 -1019
-1554 -37 -181 -46 -281 -46 -495 0 -157 11 -350 20 -365 2 -3 6 -26 10 -50 3
-25 10 -63 15 -85 5 -22 11 -55 15 -72 3 -18 21 -85 41 -150 118 -391 334
-753 619 -1039 97 -98 219 -203 287 -250 24 -16 45 -32 48 -35 5 -7 113 -77
145 -95 11 -6 38 -21 60 -34 72 -42 248 -126 325 -155 41 -15 84 -31 95 -35
61 -25 218 -67 335 -90 30 -6 64 -13 75 -15 164 -33 596 -38 735 -10 14 3 45
8 70 11 73 9 217 42 325 75 96 30 319 114 340 129 6 4 48 27 95 51 157 80 374
229 500 344 136 124 315 324 376 420 10 17 22 32 25 35 11 9 114 181 161 270
85 161 167 387 212 580 46 197 51 259 51 580 0 233 -7 368 -20 390 -2 3 -6 25
-9 50 -3 25 -15 81 -27 125 -11 44 -22 89 -24 99 -11 46 -61 189 -102 286
-126 301 -298 557 -537 796 -328 327 -687 533 -1151 660 -40 11 -202 42 -260
50 -27 4 -59 9 -70 11 -51 12 -486 10 -580 -2z"/>
</g>
</svg>
